<?xml version="1.0" encoding="UTF-8" standalone="no"?>
<!DOCTYPE svg PUBLIC "-//W3C//DTD SVG 1.1//EN"
 "http://www.w3.org/Graphics/SVG/1.1/DTD/svg11.dtd">
<!-- Generated by graphviz version 7.0.2 (20221119.0110)
 -->
<!-- Title: Graph_сoloring Pages: 1 -->
<svg width="82pt" height="308pt"
 viewBox="0.00 0.00 82.00 308.00" xmlns="http://www.w3.org/2000/svg" xmlns:xlink="http://www.w3.org/1999/xlink">
<g id="graph0" class="graph" transform="scale(1 1) rotate(0) translate(4 304)">
<title>Graph_сoloring</title>
<polygon fill="white" stroke="none" points="-4,4 -4,-304 78,-304 78,4 -4,4"/>
<!-- 0 -->
<g id="node1" class="node">
<title>0</title>
<ellipse fill="magenta" stroke="magenta" cx="50" cy="-276" rx="24" ry="24"/>
<text text-anchor="middle" x="50" y="-272.3" font-family="Times New Roman,serif" font-size="14.00">0</text>
</g>
<!-- 1 -->
<g id="node2" class="node">
<title>1</title>
<ellipse fill="blue" stroke="blue" cx="24" cy="-192" rx="24" ry="24"/>
<text text-anchor="middle" x="24" y="-188.3" font-family="Times New Roman,serif" font-size="14.00">1</text>
</g>
<!-- 0&#45;&#45;1 -->
<g id="edge1" class="edge">
<title>0&#45;&#45;1</title>
<path fill="none" stroke="black" d="M42.9,-252.59C39.23,-241.02 34.76,-226.95 31.1,-215.38"/>
</g>
<!-- 2 -->
<g id="node3" class="node">
<title>2</title>
<ellipse fill="yellow" stroke="yellow" cx="50" cy="-108" rx="24" ry="24"/>
<text text-anchor="middle" x="50" y="-104.3" font-family="Times New Roman,serif" font-size="14.00">2</text>
</g>
<!-- 0&#45;&#45;2 -->
<g id="edge2" class="edge">
<title>0&#45;&#45;2</title>
<path fill="none" stroke="black" d="M53.39,-251.8C54.82,-240.95 56.3,-227.84 57,-216 58.26,-194.7 58.26,-189.3 57,-168 56.3,-156.16 54.82,-143.05 53.39,-132.2"/>
</g>
<!-- 1&#45;&#45;2 -->
<g id="edge3" class="edge">
<title>1&#45;&#45;2</title>
<path fill="none" stroke="black" d="M31.1,-168.59C34.77,-157.02 39.24,-142.95 42.9,-131.38"/>
</g>
<!-- 3 -->
<g id="node4" class="node">
<title>3</title>
<ellipse fill="magenta" stroke="magenta" cx="50" cy="-24" rx="24" ry="24"/>
<text text-anchor="middle" x="50" y="-20.3" font-family="Times New Roman,serif" font-size="14.00">3</text>
</g>
<!-- 2&#45;&#45;3 -->
<g id="edge4" class="edge">
<title>2&#45;&#45;3</title>
<path fill="none" stroke="black" d="M50,-83.72C50,-72.64 50,-59.42 50,-48.34"/>
</g>
</g>
</svg>
